<?xml version="1.0" standalone="no"?>
<!DOCTYPE svg PUBLIC "-//W3C//DTD SVG 20010904//EN"
 "http://www.w3.org/TR/2001/REC-SVG-20010904/DTD/svg10.dtd">
<svg version="1.0" xmlns="http://www.w3.org/2000/svg"
 width="500.000000pt" height="500.000000pt" viewBox="0 0 500.000000 500.000000"
 preserveAspectRatio="xMidYMid meet">

<g transform="translate(0.000000,500.000000) scale(0.100000,-0.100000)"
fill="#1f2eb9ff" stroke="none">
<path d="M1600 4010 c-236 -34 -463 -203 -570 -425 -21 -44 -48 -114 -59 -155
-20 -73 -21 -97 -21 -920 1 -893 0 -878 48 -1011 46 -132 161 -283 281 -372
66 -49 197 -109 276 -128 88 -20 1838 -21 1905 0 198 60 313 133 425 268 57
70 130 202 146 268 38 150 39 173 39 977 0 506 -4 806 -10 840 -26 132 -78
257 -145 348 -45 61 -149 159 -211 198 -28 18 -80 44 -115 58 -148 61 -87 57
-1049 60 -487 1 -910 -2 -940 -6z m1874 -237 c167 -63 301 -201 353 -361 17
-53 18 -113 18 -912 l0 -855 -31 -77 c-76 -186 -217 -312 -404 -359 -80 -20
-1718 -21 -1800 0 -106 26 -200 79 -275 155 -128 129 -142 193 -75 326 54 108
200 355 270 460 70 103 167 215 236 269 73 58 125 76 215 76 129 -1 214 -56
374 -240 166 -193 270 -299 345 -356 151 -113 314 -164 448 -140 201 35 359
158 416 321 14 39 16 126 16 636 l0 591 -25 11 c-33 15 -146 15 -179 1 -13 -6
-27 -21 -30 -33 -3 -11 -6 -275 -6 -586 0 -535 -1 -567 -19 -595 -28 -45 -56
-71 -108 -102 -42 -25 -58 -28 -134 -28 -127 0 -188 33 -339 184 -109 110
-258 271 -301 325 -37 47 -174 150 -244 182 -217 100 -449 49 -639 -142 -95
-95 -239 -295 -346 -481 l-45 -78 -3 660 c-2 472 0 677 9 720 33 173 161 334
324 410 95 44 87 44 1025 42 l895 -2 59 -22z"/>
<path d="M2949 2999 c-20 -7 -28 -19 -33 -47 -10 -61 -7 -788 4 -816 19 -51
120 -73 195 -42 l35 15 0 434 c0 390 -2 436 -16 448 -21 17 -148 23 -185 8z"/>
</g>
</svg>
